<?xml version="1.0" encoding="UTF-8"?><svg id="a" xmlns="http://www.w3.org/2000/svg" width="4.97cm" height="1.18cm" viewBox="0 0 140.8 33.5"><path d="M38.77,21.71c-2.08-1.17-3.29-3.33-3.29-6.03,0-1.36.28-2.57.87-3.63,1.13-2.12,3.29-3.37,6-3.37,1.34,0,2.52.3,3.56.89,2.06,1.19,3.25,3.39,3.25,6.11,0,1.34-.28,2.55-.85,3.59-1.13,2.1-3.29,3.33-5.96,3.33-1.34,0-2.53-.28-3.57-.89ZM42.32,20.43c2.65,0,4.39-1.85,4.39-4.75s-1.83-4.84-4.39-4.84-4.41,1.87-4.41,4.84,1.76,4.75,4.41,4.75Z" fill="#e2baff"/><path d="M52.2,12.37l1.25,2.19c1.13-1.8,2.63-2.19,3.78-2.19.93,0,1.72.21,2.42.66.72.47,1.27,1.08,1.63,1.83.4.79.59,1.66.59,2.63s-.19,1.85-.59,2.65c-.36.76-.93,1.36-1.65,1.8-.68.45-1.48.66-2.4.66-.62,0-1.25-.13-1.85-.4-.55-.26-1.04-.64-1.44-1.12v4.8h-2.31v-9.89l-1.42-2.48,1.99-1.15ZM53.94,17.5c0,.59.11,1.13.34,1.61.28.51.61.87.98,1.1.43.25.91.36,1.46.36s1.04-.11,1.46-.36c.42-.25.76-.61.96-1.1.25-.47.34-1.02.34-1.61,0-.95-.25-1.7-.74-2.23-.51-.57-1.17-.85-2.04-.85-.81,0-1.49.28-2,.85-.49.53-.76,1.29-.76,2.23Z" fill="#e2baff"/><path d="M63.69,14.87c.38-.76.95-1.38,1.72-1.87.79-.43,1.66-.64,2.67-.64s1.83.21,2.5.61c.72.45,1.25,1.06,1.63,1.82.34.78.53,1.7.53,2.72l-.04.55h-7.36c.08.85.38,1.49.91,1.99.53.42,1.23.61,2.06.61.64,0,1.21-.11,1.74-.32.53-.21,1-.47,1.38-.79.06.06.98,1.68.98,1.68-.59.43-1.25.78-1.97,1.04-.66.25-1.44.36-2.29.36-1.02,0-1.93-.21-2.67-.64-.72-.42-1.3-1.02-1.78-1.82-.42-.79-.62-1.68-.62-2.65s.19-1.83.61-2.63ZM65.4,16.48h5.05c-.08-.76-.32-1.29-.74-1.63-.45-.4-.98-.61-1.63-.61s-1.23.21-1.74.57c-.45.36-.76.91-.95,1.66Z" fill="#e2baff"/><path d="M83.98,16.4v5.9h-2.33v-5.69c0-.78-.17-1.32-.53-1.68-.34-.42-.85-.61-1.55-.61-.45,0-.83.11-1.21.36-.36.19-.64.51-.83.91-.17.38-.28.83-.28,1.38v5.33h-2.35v-6.3l-1.42-2.5,2-1.13,1.17,2c1.19-1.78,2.48-2,3.35-2,.98,0,1.59.17,1.99.36.4.19.76.43,1.02.74.64.7.96,1.68.96,2.93Z" fill="#e2baff"/><path d="M96.29,21.79c-.42.21-.96.42-1.65.61-.62.13-1.29.21-1.99.21-1.36,0-2.57-.3-3.61-.87-1.02-.57-1.82-1.38-2.4-2.46-.57-1.04-.85-2.25-.85-3.63s.28-2.55.83-3.63c.55-1.06,1.4-1.89,2.4-2.44,1.04-.61,2.29-.89,3.76-.89.74,0,1.38.06,1.93.21.64.15,1.17.34,1.55.57.4.19.87.45,1.42.81l-1.19,2.02c-.59-.4-1.15-.7-1.7-.93-.64-.25-1.32-.38-2.06-.38-.98,0-1.8.19-2.44.59-.7.43-1.21.98-1.55,1.66-.34.74-.53,1.55-.53,2.44s.19,1.68.53,2.38c.34.68.85,1.23,1.55,1.63.66.38,1.47.57,2.42.57.55,0,1.04-.06,1.49-.17.49-.13.91-.28,1.25-.47.47-.25.83-.47,1.1-.68l1.17,2.04c-.57.34-1.04.62-1.44.81Z" fill="#e2baff"/><path d="M99.15,22.3v-13.71h2.31v13.71h-2.31Z" fill="#e2baff"/><path d="M103.18,17.5c0-2.99,2.12-5.12,5.16-5.12s5.13,2.12,5.13,5.11-2.1,5.12-5.14,5.12-5.14-1.99-5.14-5.11ZM108.32,20.62c1.63,0,2.74-1.15,2.74-3.14s-1.12-3.14-2.74-3.14-2.76,1.27-2.76,3.14,1.1,3.14,2.76,3.14Z" fill="#e2baff"/><path d="M118.81,22.6c-1.12,0-2-.34-2.69-1.08-.64-.74-.96-1.74-.96-2.99v-5.86h2.31v5.69c0,.74.17,1.31.53,1.7.34.38.87.55,1.57.55.45,0,.85-.09,1.21-.3.36-.21.62-.53.81-.93.21-.42.3-.89.3-1.38v-5.33h2.33v6.35l1.4,2.44-1.99,1.13-1.12-1.91s-.43.57-1.02,1.06c-.72.61-1.48.85-2.69.85Z" fill="#e2baff"/><path d="M126.96,14.87c.43-.85.95-1.48,1.65-1.83.7-.43,1.51-.68,2.38-.68.74,0,1.34.15,1.87.42.53.26,1.02.61,1.42,1.12v-5.3h2.31v10.42l1.38,2.44-1.99,1.13-1.21-2.1s-.83,1.17-1.91,1.7c-.45.23-1.17.4-1.85.4-.89,0-1.7-.21-2.4-.66-.68-.36-1.21-.98-1.65-1.78-.4-.79-.57-1.65-.57-2.65s.17-1.89.57-2.63ZM128.75,17.5c0,.64.11,1.15.34,1.59.26.53.61.85.96,1.08.42.25.87.38,1.44.38s1.06-.13,1.46-.38c.4-.23.74-.57.98-1.08.23-.44.34-.95.34-1.59,0-.95-.25-1.74-.78-2.23-.45-.57-1.15-.87-1.99-.87s-1.51.3-1.99.87c-.53.49-.78,1.29-.78,2.23Z" fill="#e2baff"/><polygon points="13.55 23.12 14.72 22.45 14.72 17.57 18.92 15.14 18.92 13.8 17.75 13.12 13.53 15.56 9.36 13.16 8.19 13.83 8.19 15.18 12.39 17.6 12.39 22.45 13.55 23.12" fill="#e2baff"/><polygon points="24.28 9.02 13.56 2.84 13.56 2.84 13.56 2.84 2.83 9.02 2.83 11.72 13.56 5.53 24.28 11.72 24.28 9.02" fill="#e2baff"/><polygon points="24.28 21.78 13.56 27.97 2.83 21.78 2.83 24.48 13.56 30.66 13.56 30.66 13.56 30.66 24.28 24.48 24.28 21.78" fill="#e2baff"/></svg>